<svg xmlns="http://www.w3.org/2000/svg" xmlns:xlink="http://www.w3.org/1999/xlink" xml:space="preserve" version="1.1" style="shape-rendering:geometricPrecision;text-rendering:geometricPrecision;image-rendering:optimizeQuality;" viewBox="0 0 183 417.5" x="0px" y="0px" fill-rule="evenodd" clip-rule="evenodd"><defs><style type="text/css">
   
    .fil0 {fill:black;fill-rule:nonzero}
   
  </style></defs><g><path class="fil0" d="M130 182c23,15 37,41 37,69 0,46 -37,83 -84,83 -46,0 -83,-37 -83,-83 0,-28 14,-54 37,-69l0 -139c0,-24 19,-43 43,-43l7 0c24,0 43,19 43,43l0 139zm-13 12l-4 -3 0 -148c0,-14 -12,-26 -26,-26l-7 0c-14,0 -26,12 -26,26l0 148 -4 3c-21,12 -33,33 -33,57 0,37 30,66 66,66 37,0 67,-29 67,-66 0,-24 -12,-45 -33,-57z"/><path class="fil0" d="M75 57c0,-4 4,-8 8,-8 5,0 9,4 9,8l0 149c21,4 36,22 36,44 0,24 -20,44 -45,44 -24,0 -44,-20 -44,-44 0,-22 15,-40 36,-44l0 -149zm8 165c-15,0 -27,13 -27,28 0,15 12,27 27,27 16,0 28,-12 28,-27 0,-15 -12,-28 -28,-28z"/><polygon class="fil0" points="144,40 183,40 183,57 144,57 "/><polygon class="fil0" points="144,70 183,70 183,87 144,87 "/><polygon class="fil0" points="144,100 183,100 183,117 144,117 "/><polygon class="fil0" points="144,130 183,130 183,147 144,147 "/></g></svg>