<svg xmlns="http://www.w3.org/2000/svg" xmlns:xlink="http://www.w3.org/1999/xlink" viewBox="0 0 56 70" version="1.1" x="0px" y="0px"><title>Furniture ISO - Solid - 014 - Desk</title><desc>Created with Sketch.</desc><g stroke="none" stroke-width="1" fill="none" fill-rule="evenodd"><g fill-rule="nonzero" fill="#000000"><path d="M42,31.62 L42,55.38 L56,48.38 L56,24.62 L42,31.62 Z M22.5,26.81 L22.5,34.69 L37.5,42.19 L37.5,34.31 L22.5,26.81 Z M29.71,33.71 C29.5182919,33.8926189 29.2647397,33.9961825 29,34 C28.9329615,33.9978069 28.8661453,33.9911253 28.8,33.98 C28.7373337,33.9691274 28.6766566,33.9489017 28.62,33.92 C28.5562598,33.8981496 28.4957244,33.8678819 28.44,33.83 L28.29,33.71 C28.2017411,33.6127441 28.1307222,33.5011429 28.08,33.38 C28.0286507,33.2598118 28.0014671,33.1306897 28,33 C27.9976374,32.5937349 28.2413038,32.22642 28.6165185,32.070629 C28.9917332,31.9148381 29.4239095,32.0015401 29.71,32.29 L29.83,32.44 C29.867885,32.4957226 29.8981529,32.5562584 29.92,32.62 C29.9489017,32.6766566 29.9691274,32.7373337 29.98,32.8 C29.9911253,32.8661453 29.9978069,32.9329615 30,33 C29.9961747,33.2647381 29.8926122,33.5182875 29.71,33.71 L29.71,33.71 Z M22.5,35.81 L22.5,42.69 L37.5,50.19 L37.5,43.31 L22.5,35.81 Z M29.71,42.71 C29.3156443,43.0966923 28.6843557,43.0966923 28.29,42.71 C28.2017411,42.6127441 28.1307222,42.5011429 28.08,42.38 C28.0286507,42.2598118 28.0014671,42.1306897 28,42 C27.9976374,41.5937349 28.2413038,41.22642 28.6165185,41.070629 C28.9917332,40.9148381 29.4239095,41.0015401 29.71,41.29 L29.83,41.44 C29.867885,41.4957226 29.8981529,41.5562584 29.92,41.62 C29.9489017,41.6766566 29.9691274,41.7373337 29.98,41.8 C29.9911253,41.8661453 29.9978069,41.9329615 30,42 C29.9961747,42.2647381 29.8926122,42.5182875 29.71,42.71 L29.71,42.71 Z M22.5,42.69 L37.5,50.19 L37.5,43.31 L22.5,35.81 L22.5,42.69 Z M28.29,41.29 C28.6910386,40.9200297 29.3089614,40.9200297 29.71,41.29 L29.83,41.44 C29.867885,41.4957226 29.8981529,41.5562584 29.92,41.62 C29.9489017,41.6766566 29.9691274,41.7373337 29.98,41.8 C29.9911253,41.8661453 29.9978069,41.9329615 30,42 C29.9983571,42.4043236 29.7543635,42.768217 29.3809451,42.9232621 C29.0075267,43.0783072 28.5775429,42.9942523 28.29,42.71 C28.2017411,42.6127441 28.1307222,42.5011429 28.08,42.38 C28.0286507,42.2598118 28.0014671,42.1306897 28,42 C28.0038401,41.7352649 28.1074004,41.4817206 28.29,41.29 Z M22.5,26.81 L22.5,34.69 L37.5,42.19 L37.5,34.31 L22.5,26.81 Z M29.71,33.71 C29.5182919,33.8926189 29.2647397,33.9961825 29,34 C28.9329615,33.9978069 28.8661453,33.9911253 28.8,33.98 C28.7373337,33.9691274 28.6766566,33.9489017 28.62,33.92 C28.5562598,33.8981496 28.4957244,33.8678819 28.44,33.83 L28.29,33.71 C28.2017411,33.6127441 28.1307222,33.5011429 28.08,33.38 C28.0286507,33.2598118 28.0014671,33.1306897 28,33 C27.9976374,32.5937349 28.2413038,32.22642 28.6165185,32.070629 C28.9917332,31.9148381 29.4239095,32.0015401 29.71,32.29 L29.83,32.44 C29.867885,32.4957226 29.8981529,32.5562584 29.92,32.62 C29.9489017,32.6766566 29.9691274,32.7373337 29.98,32.8 C29.9911253,32.8661453 29.9978069,32.9329615 30,33 C29.9961747,33.2647381 29.8926122,33.5182875 29.71,33.71 L29.71,33.71 Z M22.5,42.69 L37.5,50.19 L37.5,43.31 L22.5,35.81 L22.5,42.69 Z M28.29,41.29 C28.6910386,40.9200297 29.3089614,40.9200297 29.71,41.29 L29.83,41.44 C29.867885,41.4957226 29.8981529,41.5562584 29.92,41.62 C29.9489017,41.6766566 29.9691274,41.7373337 29.98,41.8 C29.9911253,41.8661453 29.9978069,41.9329615 30,42 C29.9983571,42.4043236 29.7543635,42.768217 29.3809451,42.9232621 C29.0075267,43.0783072 28.5775429,42.9942523 28.29,42.71 C28.2017411,42.6127441 28.1307222,42.5011429 28.08,42.38 C28.0286507,42.2598118 28.0014671,42.1306897 28,42 C28.0038401,41.7352649 28.1074004,41.4817206 28.29,41.29 Z M22.5,34.69 L37.5,42.19 L37.5,34.31 L22.5,26.81 L22.5,34.69 Z M28.29,32.29 C28.6910386,31.9200297 29.3089614,31.9200297 29.71,32.29 L29.83,32.44 C29.867885,32.4957226 29.8981529,32.5562584 29.92,32.62 C29.9489017,32.6766566 29.9691274,32.7373337 29.98,32.8 C29.9911253,32.8661453 29.9978069,32.9329615 30,33 C30.0026158,33.2660098 29.8980992,33.5218864 29.7099928,33.7099928 C29.5218864,33.8980992 29.2660098,34.0026158 29,34 C28.9329615,33.9978069 28.8661453,33.9911253 28.8,33.98 C28.7373337,33.9691274 28.6766566,33.9489017 28.62,33.92 C28.5562598,33.8981496 28.4957244,33.8678819 28.44,33.83 L28.29,33.71 C28.2017411,33.6127441 28.1307222,33.5011429 28.08,33.38 C28.0286507,33.2598118 28.0014671,33.1306897 28,33 C28.0038401,32.7352649 28.1074004,32.4817206 28.29,32.29 Z M20,21.62 L20,45.38 L40,55.38 L40,31.62 L20,21.62 Z M38.5,51 C38.4971386,51.1745023 38.4070227,51.3359599 38.26,51.43 C38.1816861,51.4774261 38.0915392,51.5016964 38,51.5 C37.9239822,51.4988579 37.849044,51.4818265 37.78,51.45 L21.78,43.45 C21.6102243,43.3637644 21.5023574,43.190407 21.5,43 L21.5,26 C21.5028309,25.8254895 21.5929543,25.6640185 21.74,25.57 C21.886639,25.4836563 22.0666864,25.4761543 22.22,25.55 L38.22,33.55 C38.3897757,33.6362356 38.4976426,33.809593 38.5,34 L38.5,51 Z M22.5,35.81 L22.5,42.69 L37.5,50.19 L37.5,43.31 L22.5,35.81 Z M29.71,42.71 C29.3156443,43.0966923 28.6843557,43.0966923 28.29,42.71 C28.2017411,42.6127441 28.1307222,42.5011429 28.08,42.38 C28.0286507,42.2598118 28.0014671,42.1306897 28,42 C27.9976374,41.5937349 28.2413038,41.22642 28.6165185,41.070629 C28.9917332,40.9148381 29.4239095,41.0015401 29.71,41.29 L29.83,41.44 C29.867885,41.4957226 29.8981529,41.5562584 29.92,41.62 C29.9489017,41.6766566 29.9691274,41.7373337 29.98,41.8 C29.9911253,41.8661453 29.9978069,41.9329615 30,42 C29.9961747,42.2647381 29.8926122,42.5182875 29.71,42.71 L29.71,42.71 Z M22.5,26.81 L22.5,34.69 L37.5,42.19 L37.5,34.31 L22.5,26.81 Z M29.71,33.71 C29.5182919,33.8926189 29.2647397,33.9961825 29,34 C28.9329615,33.9978069 28.8661453,33.9911253 28.8,33.98 C28.7373337,33.9691274 28.6766566,33.9489017 28.62,33.92 C28.5562598,33.8981496 28.4957244,33.8678819 28.44,33.83 L28.29,33.71 C28.2017411,33.6127441 28.1307222,33.5011429 28.08,33.38 C28.0286507,33.2598118 28.0014671,33.1306897 28,33 C27.9976374,32.5937349 28.2413038,32.22642 28.6165185,32.070629 C28.9917332,31.9148381 29.4239095,32.0015401 29.71,32.29 L29.83,32.44 C29.867885,32.4957226 29.8981529,32.5562584 29.92,32.62 C29.9489017,32.6766566 29.9691274,32.7373337 29.98,32.8 C29.9911253,32.8661453 29.9978069,32.9329615 30,33 C29.9961747,33.2647381 29.8926122,33.5182875 29.71,33.71 L29.71,33.71 Z M22.5,35.81 L22.5,42.69 L37.5,50.19 L37.5,43.31 L22.5,35.81 Z M29.71,42.71 C29.3156443,43.0966923 28.6843557,43.0966923 28.29,42.71 C28.2017411,42.6127441 28.1307222,42.5011429 28.08,42.38 C28.0286507,42.2598118 28.0014671,42.1306897 28,42 C27.9976374,41.5937349 28.2413038,41.22642 28.6165185,41.070629 C28.9917332,40.9148381 29.4239095,41.0015401 29.71,41.29 L29.83,41.44 C29.867885,41.4957226 29.8981529,41.5562584 29.92,41.62 C29.9489017,41.6766566 29.9691274,41.7373337 29.98,41.8 C29.9911253,41.8661453 29.9978069,41.9329615 30,42 C29.9961747,42.2647381 29.8926122,42.5182875 29.71,42.71 L29.71,42.71 Z M22.5,26.81 L22.5,34.69 L37.5,42.19 L37.5,34.31 L22.5,26.81 Z M29.71,33.71 C29.5182919,33.8926189 29.2647397,33.9961825 29,34 C28.9329615,33.9978069 28.8661453,33.9911253 28.8,33.98 C28.7373337,33.9691274 28.6766566,33.9489017 28.62,33.92 C28.5562598,33.8981496 28.4957244,33.8678819 28.44,33.83 L28.29,33.71 C28.2017411,33.6127441 28.1307222,33.5011429 28.08,33.38 C28.0286507,33.2598118 28.0014671,33.1306897 28,33 C27.9976374,32.5937349 28.2413038,32.22642 28.6165185,32.070629 C28.9917332,31.9148381 29.4239095,32.0015401 29.71,32.29 L29.83,32.44 C29.867885,32.4957226 29.8981529,32.5562584 29.92,32.62 C29.9489017,32.6766566 29.9691274,32.7373337 29.98,32.8 C29.9911253,32.8661453 29.9978069,32.9329615 30,33 C29.9961747,33.2647381 29.8926122,33.5182875 29.71,33.71 L29.71,33.71 Z M0,11.62 L0,34.38 L18,25.38 L18,20.62 L0,11.62 Z M15,0.12 L0.68,7.28 L41,27.44 L55.32,20.28 L15,0.12 Z M41.5,28.31 L41.5,29.63 L56,22.38 L56,21.06 L41.5,28.31 Z M0,8.06 L0,9.38 L40.5,29.63 L40.5,28.31 L0,8.06 Z"/></g></g></svg>