<svg xmlns="http://www.w3.org/2000/svg" viewBox="0 0 64 80" x="0px" y="0px"><title>Furniture, house, living, roomicon_16</title><g><path d="M47,33V15.5a14.5,14.5,0,0,0-29,0V33H1V63H20V39H45V63H63V33Zm14,9H47V35H61ZM20,15.5a12.5,12.5,0,0,1,25,0V33H20ZM3,35H18v7H3Zm0,9H18v8H3ZM3,61V54H18v7ZM20,37V35H45v2ZM47,61V44H61V61Z"/><rect x="49" y="48" width="2" height="7"/><path d="M10.5,38.125A1.375,1.375,0,1,0,11.875,39.5,1.3764,1.3764,0,0,0,10.5,38.125Zm0,2a.625.625,0,1,1,.625-.625A.6256.6256,0,0,1,10.5,40.125Z"/><path d="M54.5,40.875A1.375,1.375,0,1,0,53.125,39.5,1.3764,1.3764,0,0,0,54.5,40.875Zm0-2a.625.625,0,1,1-.625.625A.6256.6256,0,0,1,54.5,38.875Z"/><path d="M10.5,48.125A1.375,1.375,0,1,0,11.875,49.5,1.3764,1.3764,0,0,0,10.5,48.125Zm0,2a.625.625,0,1,1,.625-.625A.6256.6256,0,0,1,10.5,50.125Z"/><path d="M10.5,57.125A1.375,1.375,0,1,0,11.875,58.5,1.3764,1.3764,0,0,0,10.5,57.125Zm0,2a.625.625,0,1,1,.625-.625A.6256.6256,0,0,1,10.5,59.125Z"/><path d="M40,40H25a3.0033,3.0033,0,0,0-3,3V63H43V43A3.0033,3.0033,0,0,0,40,40Zm1,21H24V45H41ZM24,43a1.0013,1.0013,0,0,1,1-1H40a1.0013,1.0013,0,0,1,1,1Z"/><rect x="25.5359" y="23.3661" width="8" height="2.0003" transform="translate(-8.2255 18.0289) rotate(-29.9947)"/><rect x="34.598" y="19.8661" width="1.9999" height="2.0003" transform="translate(-5.6639 20.5907) rotate(-29.9947)"/><rect x="29.5309" y="16.1517" width="9.0002" height="2.0003" transform="translate(-4.0168 19.3099) rotate(-29.9947)"/></g></svg>