<svg xmlns="http://www.w3.org/2000/svg" xmlns:xlink="http://www.w3.org/1999/xlink" version="1.1" x="0px" y="0px" viewBox="0 0 96 120" enable-background="new 0 0 96 96" xml:space="preserve"><g><path d="M81,12.489H15c-3.85,0-7,3.15-7,7v2.345c0,3.85,3.15,7,7,7h66c3.85,0,7-3.15,7-7v-2.345C88,15.639,84.85,12.489,81,12.489z   "/><path d="M67,56.172c3.85,0,7-3.15,7-7v-2.344c0-3.85-3.15-7-7-7H29c-3.85,0-7,3.15-7,7v2.344c0,3.85,3.15,7,7,7H67z"/><path d="M81,67.166H15c-3.85,0-7,3.15-7,7v2.346c0,3.85,3.15,7,7,7h66c3.85,0,7-3.15,7-7v-2.346C88,70.316,84.85,67.166,81,67.166z   "/></g></svg>