<svg xmlns="http://www.w3.org/2000/svg" data-name="Layer 1" viewBox="0 0 64 80" x="0px" y="0px"><title>sofa copy 2, home, interior</title><path d="M17.27,45a1,1,0,0,1-1-.82L13.93,30.82a1,1,0,0,0-1-.82H12a1,1,0,0,0-1,1.17l.33,1.9a1,1,0,1,1-2,.34L9,31.52A3,3,0,0,1,12,28h.94a3,3,0,0,1,3,2.47l2.36,13.35a1,1,0,0,1-.8,1.16A.55.55,0,0,1,17.27,45Z"/><path d="M46.73,45a.55.55,0,0,1-.18,0,1,1,0,0,1-.8-1.16L48.1,30.48a3,3,0,0,1,3-2.48H52a3,3,0,0,1,3,3.53l-.32,1.88a1,1,0,1,1-2-.34L53,31.18A1,1,0,0,0,52,30h-.94a1,1,0,0,0-1,.83L47.71,44.18A1,1,0,0,1,46.73,45Z"/><path d="M56,51H8a1,1,0,0,1-1-1v-.91L4.22,33.35a2,2,0,0,1,.44-1.64A2,2,0,0,1,6.19,31H8.32a3.2,3.2,0,0,1,3.16,2.48L13.14,43H50.86l1.65-9.52A3.22,3.22,0,0,1,55.68,31h2.13a2,2,0,0,1,1.53.71,2,2,0,0,1,.44,1.64L57,49.09V50A1,1,0,0,1,56,51ZM9,49H55a.47.47,0,0,1,0-.17L57.81,33H55.68a1.26,1.26,0,0,0-1.2.83L52.69,44.17a1,1,0,0,1-1,.83H12.3a1,1,0,0,1-1-.83L9.51,33.82A1.25,1.25,0,0,0,8.32,33H6.19L9,48.83A.47.47,0,0,1,9,49Z"/><path d="M32,45H16a1,1,0,0,1,0-2H31V41.14A1.14,1.14,0,0,0,29.86,40H16.38a1,1,0,1,1,0-2H29.86A3.15,3.15,0,0,1,33,41.14V44A1,1,0,0,1,32,45Z"/><path d="M48,45H32a1,1,0,0,1-1-1V41.14A3.15,3.15,0,0,1,34.14,38H47.62a1,1,0,1,1,0,2H34.14A1.14,1.14,0,0,0,33,41.14V43H48a1,1,0,0,1,0,2Z"/><path d="M29.86,40H16.38a1,1,0,1,1,0-2H29.86a1,1,0,0,1,0,2Z"/><path d="M32,40a1,1,0,0,1-1-1V26.27a1,1,0,0,0-.34-.76,1,1,0,0,0-.79-.24l-12,1.5a1,1,0,0,0-.87,1v9.05a1,1,0,0,1-2,0v-9a3,3,0,0,1,2.62-3l12-1.5a3,3,0,0,1,3.37,3V39A1,1,0,0,1,32,40Z"/><path d="M47.62,40H34.14a1,1,0,0,1,0-2H47.62a1,1,0,1,1,0,2Z"/><path d="M32,40a1,1,0,0,1-1-1V26.27a3,3,0,0,1,3.37-3l12,1.5a3,3,0,0,1,2.63,3v9.05a1,1,0,0,1-2,0v-9a1,1,0,0,0-.88-1l-12-1.5a1,1,0,0,0-.79.24,1,1,0,0,0-.34.76V39A1,1,0,0,1,32,40Z"/><path d="M12,52H11a1,1,0,0,1,0-2h1a1,1,0,0,1,0,2Z"/><path d="M53,52H52a1,1,0,0,1,0-2h1a1,1,0,0,1,0,2Z"/></svg>