<svg xmlns="http://www.w3.org/2000/svg" xmlns:xlink="http://www.w3.org/1999/xlink" version="1.1" x="0px" y="0px" viewBox="0 0 60 70" style="enable-background:new 0 0 60 56;" xml:space="preserve"><g><path d="M20,20H1c-0.552,0-1-0.447-1-1V1c0-0.553,0.448-1,1-1h19c0.552,0,1,0.447,1,1v18C21,19.553,20.552,20,20,20z M2,18h17V2H2   V18z"/><path d="M59,20H40c-0.552,0-1-0.447-1-1V1c0-0.553,0.448-1,1-1h19c0.552,0,1,0.447,1,1v18C60,19.553,59.552,20,59,20z M41,18h17V2   H41V18z"/><path d="M40,20H20c-0.552,0-1-0.447-1-1V1c0-0.553,0.448-1,1-1h20c0.552,0,1,0.447,1,1v18C41,19.553,40.552,20,40,20z M21,18h18V2   H21V18z"/><path d="M20,56H1c-0.552,0-1-0.447-1-1V37c0-0.553,0.448-1,1-1h19c0.552,0,1,0.447,1,1v18C21,55.553,20.552,56,20,56z M2,54h17V38   H2V54z"/><path d="M59,56H40c-0.552,0-1-0.447-1-1V37c0-0.553,0.448-1,1-1h19c0.552,0,1,0.447,1,1v18C60,55.553,59.552,56,59,56z M41,54h17   V38H41V54z"/><path d="M40,56H20c-0.552,0-1-0.447-1-1V37c0-0.553,0.448-1,1-1h20c0.552,0,1,0.447,1,1v18C41,55.553,40.552,56,40,56z M21,54h18   V38H21V54z"/><path d="M20,38H1c-0.552,0-1-0.447-1-1V19c0-0.553,0.448-1,1-1h19c0.552,0,1,0.447,1,1v18C21,37.553,20.552,38,20,38z M2,36h17V20   H2V36z"/><path d="M59,38H40c-0.552,0-1-0.447-1-1V19c0-0.553,0.448-1,1-1h19c0.552,0,1,0.447,1,1v18C60,37.553,59.552,38,59,38z M41,36h17   V20H41V36z"/><path d="M40,38H20c-0.552,0-1-0.447-1-1V19c0-0.553,0.448-1,1-1h20c0.552,0,1,0.447,1,1v18C41,37.553,40.552,38,40,38z M21,36h18   V20H21V36z"/><path d="M16,34H5c-0.552,0-1-0.447-1-1V23c0-0.553,0.448-1,1-1h11c0.552,0,1,0.447,1,1v10C17,33.553,16.552,34,16,34z M6,32h9v-8H6   V32z"/><path d="M55,34H44c-0.552,0-1-0.447-1-1V23c0-0.553,0.448-1,1-1h11c0.552,0,1,0.447,1,1v10C56,33.553,55.552,34,55,34z M45,32h9v-8   h-9V32z"/><path d="M36,16H24c-0.552,0-1-0.447-1-1V5c0-0.553,0.448-1,1-1h12c0.552,0,1,0.447,1,1v10C37,15.553,36.552,16,36,16z M25,14h10V6   H25V14z"/><path d="M36,52H24c-0.552,0-1-0.447-1-1V41c0-0.553,0.448-1,1-1h12c0.552,0,1,0.447,1,1v10C37,51.553,36.552,52,36,52z M25,50h10   v-8H25V50z"/><path d="M5,14c-0.552,0-1-0.447-1-1V7c0-0.553,0.448-1,1-1s1,0.447,1,1v6C6,13.553,5.552,14,5,14z"/><path d="M7,11H5c-0.552,0-1-0.447-1-1s0.448-1,1-1h2c0.552,0,1,0.447,1,1S7.552,11,7,11z"/><path d="M44,14c-0.552,0-1-0.447-1-1V7c0-0.553,0.448-1,1-1s1,0.447,1,1v6C45,13.553,44.552,14,44,14z"/><path d="M46,11h-2c-0.552,0-1-0.447-1-1s0.448-1,1-1h2c0.552,0,1,0.447,1,1S46.552,11,46,11z"/><path d="M5,50c-0.552,0-1-0.447-1-1v-6c0-0.553,0.448-1,1-1s1,0.447,1,1v6C6,49.553,5.552,50,5,50z"/><path d="M7,47H5c-0.552,0-1-0.447-1-1s0.448-1,1-1h2c0.552,0,1,0.447,1,1S7.552,47,7,47z"/><path d="M24,32c-0.552,0-1-0.447-1-1v-6c0-0.553,0.448-1,1-1s1,0.447,1,1v6C25,31.553,24.552,32,24,32z"/><path d="M26,29h-2c-0.552,0-1-0.447-1-1s0.448-1,1-1h2c0.552,0,1,0.447,1,1S26.552,29,26,29z"/><path d="M44,50c-0.552,0-1-0.447-1-1v-6c0-0.553,0.448-1,1-1s1,0.447,1,1v6C45,49.553,44.552,50,44,50z"/><path d="M46,47h-2c-0.552,0-1-0.447-1-1s0.448-1,1-1h2c0.552,0,1,0.447,1,1S46.552,47,46,47z"/></g></svg>